{"title":"Safe.Haven.2013.R5.Cam.Audio.XviD.Feel-Free","uid":8370162,"size":1296310612,"categoryP":"video","categoryS":"movies","magnet":"?xt=urn:btih:8c45b73d9722379b35aac045ea83e261ec1dc73d&amp;dn=Safe.Haven.2013.R5.Cam.Audio.XviD.Feel-Free&amp;tr=udp%3A%2F%2Ftracker.openbittorrent.com%3A80&amp;tr=udp%3A%2F%2Fopen.demonii.com%3A1337&amp;tr=udp%3A%2F%2Ftracker.coppersurfer.tk%3A6969&amp;tr=udp%3A%2F%2Fexodus.desync.com%3A6969","seeders":1,"leechers":0,"uploader":"Gh0stNet","files":6,"time":1365887934,"description":"Genre: Drama | Mystery | Romance\nLanguage:English\nIMDb: &lt;a href=&quot;\nhttp://www.imdb.com/title/tt1702439/&quot; rel=&quot;nofollow&quot; target=&quot;_NEW&quot;&gt;\nhttp://www.imdb.com/title/tt1702439/&lt;/a&gt;\nSource:Russian/THC Thanks\nSample:Never\nEncoder:Tony\n\nFormat                                   : AVI\nFormat/Info                              : Audio Video Interleave\nFile size                                : 1.21 GiB\nDuration                                 : 1h 50mn\nOverall bit rate                         : 1 558 Kbps\n\nVideo\nID                                       : 0\nFormat                                   : MPEG-4 Visual\nFormat profile                           : Advanced Simple@L5\nFormat settings, BVOP                    : 1\nFormat settings, QPel                    : No\nFormat settings, GMC                     : No warppoints\nFormat settings, Matrix                  : Default (H.263)\nCodec ID                                 : XVID\nCodec ID/Hint                            : XviD\nDuration                                 : 1h 50mn\nBit rate                                 : 1 388 Kbps\nWidth                                    : 640 pixels\nHeight                                   : 352 pixels\nDisplay aspect ratio                     : 16:9\nFrame rate                               : 25.000 fps\nColor space                              : YUV\nChroma subsampling                       : 4:2:0\nBit depth                                : 8 bits\nScan type                                : Progressive\nCompression mode                         : Lossy\nBits/(Pixel*Frame)                       : 0.246\nStream size                              : 1.08 GiB (89%)\nWriting library                          : XviD 1.2.1 (UTC 2008-12-04)\n\nAudio\nID                                       : 1\nFormat                                   : AC-3\nFormat/Info                              : Audio Coding 3\nMode extension                           : CM (complete main)\nCodec ID                                 : 2000\nDuration                                 : 1h 50mn\nBit rate mode                            : Constant\nBit rate                                 : 160 Kbps\nChannel(s)                               : 2 channels\nChannel positions                        : Front: L R\nSampling rate                            : 48.0 KHz\nBit depth                                : 16 bits\nCompression mode                         : Lossy\nStream size                              : 127 MiB (10%)\nAlignment                                : Aligned on interleaves\nInterleave, duration                     : 40 ms (1.00 video frame)\nInterleave, preload duration             : 512 ms\n\nScreens:\n &lt;a href=&quot;\nhttp://i.imgur.com/skpBQLF.png&quot; rel=&quot;nofollow&quot; target=&quot;_NEW&quot;&gt;\nhttp://i.imgur.com/skpBQLF.png&lt;/a&gt; &lt;a href=&quot;\nhttp://i.imgur.com/sEug0oK.png&quot; rel=&quot;nofollow&quot; target=&quot;_NEW&quot;&gt;\nhttp://i.imgur.com/sEug0oK.png&lt;/a&gt;","torrent":{"xt":"urn:btih:8c45b73d9722379b35aac045ea83e261ec1dc73d","amp;dn":"Safe.Haven.2013.R5.Cam.Audio.XviD.Feel-Free","amp;tr":["udp%3A%2F%2Ftracker.openbittorrent.com%3A80","udp%3A%2F%2Fopen.demonii.com%3A1337","udp%3A%2F%2Ftracker.coppersurfer.tk%3A6969","udp%3A%2F%2Fexodus.desync.com%3A6969"],"infoHash":"8c45b73d9722379b35aac045ea83e261ec1dc73d","infoHashBuffer":{"type":"Buffer","data":[140,69,183,61,151,34,55,155,53,170,192,69,234,131,226,97,236,29,199,61]},"announce":[],"urlList":[]}}